<svg xmlns="http://www.w3.org/2000/svg" width="1024" height="1024" viewBox="0 0 1024 1024" version="1.1">
  <path d="M362.939 9.09C338.622 23.696 320.881 36.55 318.302 41.428 314.6 48.429 316.878 62.064 323.692 73.692 330.477 85.271 370.881 126.086 382.036 132.628 401.214 143.874 416.03 125.084 415.576 90.091 415.302 69.086 406.121 31.542 396.553 12.31 391.331 1.815 390.353 0.842 384.562 0.386 379.657 0 374.856 1.932 362.939 9.09M736.784 64.9C708.017 80.05 635.392 131.465 588.199 170.089 560.714 192.584 511.777 240.536 494.213 262.182 445.415 322.325 418.202 381.159 401.868 461.824 392.695 507.121 390.98 526.56 391.027 584.754 391.082 656.859 396.653 713.042 410.68 782.983 419.193 825.433 425.803 845.108 432.4 847.64 442.688 851.588 445.835 845.355 445.837 821.009 445.842 757.262 459.655 706.456 489.15 661.683 502.878 640.844 525.024 618.651 556.219 594.475 632.382 535.442 674.353 487.509 705.491 423.995 728.97 376.101 740.282 327.767 743.99 259.479 747.53 194.296 748.836 173.52 750.503 155.86 752.576 133.898 757.937 101.27 762.098 85.296 769.479 56.956 762.518 51.348 736.784 64.9M210.943 188.89C206.748 193.525 207.229 202.627 212.495 218.167 222.952 249.038 226.407 253.305 248.871 263.123 258.583 267.367 272.205 273.469 279.143 276.682 298.34 285.573 315.229 290.589 321.409 289.232 333.996 286.467 342.776 267.412 336.793 255.845 329.487 241.716 297.902 198.946 292.658 196.08 288.281 193.687 279.422 190.553 275.539 190.022 273.556 189.75 265.591 188.643 257.839 187.56 250.084 186.479 237.034 185.594 228.834 185.594 216.679 185.594 213.374 186.203 210.943 188.89M124.989 352.376C120.749 357.487 122.546 365.589 138.559 413.557 159.26 475.559 162.777 482.674 176.12 489.502 193.355 498.323 259.788 504.295 281.073 498.936 290.033 496.68 298.065 488.767 298.065 482.196 298.065 477.441 289.952 465.487 269.008 439.383 260.706 429.035 248.691 413.851 242.31 405.64 222.914 380.691 213.698 374.987 168.221 359.796 138.876 349.992 128.453 348.205 124.989 352.376M866.807 384.765C849.527 393.776 830.474 410.935 815.827 430.677 796.235 457.083 797.721 465.316 825.019 481.558 855.759 499.849 864.232 501.172 884.019 490.774 900.068 482.341 908.969 472.308 908.969 462.649 908.969 454.394 895.906 408.014 890.604 397.439 883.073 382.424 877.245 379.321 866.807 384.765M800.844 580.197C745.001 591.739 714.986 600.984 684.252 616.105 645.606 635.119 616.684 656.009 585.975 687.087 566.516 706.78 564.116 709.734 546.135 736.129 514.132 783.104 495.789 833.25 489.002 892.319 483.695 938.493 492.593 1014.499 504.204 1022.182 506.951 1024 507.762 1023.899 511.263 1021.308 513.658 1019.536 514.867 1013.2 516.92 991.667 520.01 959.242 521.547 952.829 530.223 936.16 538.606 920.051 560.647 897.435 580.09 884.993 588.019 879.92 606.265 870.849 620.636 864.835 635.008 858.82 652.443 851.442 659.381 848.44 725.624 819.767 772.597 761.846 825.736 643.322 844.051 602.472 848.987 587.429 846.858 578.953 845.929 575.247 844.813 574.859 835.5 575.005 829.82 575.095 814.225 577.431 800.844 580.197M118.156 588.701C115.031 594.538 115.682 596.014 139.258 636.6 148.469 652.455 154.614 665.668 165.644 693.326 180.632 730.908 186.451 734.698 238.596 740.854 256.267 742.939 275.928 746.53 287.059 749.706 311.11 756.57 319.138 756.737 321.537 750.428 324.27 743.238 323.62 730.043 319.855 716.27 317.963 709.352 315.049 696.799 313.377 688.374 311.706 679.949 307.926 667.955 304.974 661.718 296.003 642.752 289.397 639.172 216.07 613.523 134.393 584.954 121.861 581.777 118.156 588.701M273.7 860.986C257.348 871.077 247.268 878.441 241.569 884.456 237.228 889.041 236.635 890.789 237.733 895.782 239.418 903.457 254.744 918.759 266.528 924.534 275.313 928.841 276.596 928.951 317.887 928.951 356.632 928.951 360.849 928.645 367.445 925.347 378.448 919.845 378.187 914.399 366.318 901.85 361.108 896.341 351.527 888.073 345.025 883.478 338.525 878.88 330.017 872.433 326.121 869.147 315.28 860.004 302.2 854.156 292.756 854.228 286.504 854.277 281.963 855.888 273.7 860.986" stroke="none" fill="#C8AE8B" fill-rule="evenodd"/>
</svg>
